<?xml version="1.0" encoding="UTF-8"?>
<!-- Generator: Adobe Illustrator 13.0.0, SVG Export Plug-In  -->
<!DOCTYPE svg PUBLIC "-//W3C//DTD SVG 1.1//EN" "http://www.w3.org/Graphics/SVG/1.1/DTD/svg11.dtd">
<svg version="1.1" xmlns="http://www.w3.org/2000/svg" xmlns:xlink="http://www.w3.org/1999/xlink" xmlns:a="http://ns.adobe.com/AdobeSVGViewerExtensions/3.0/" x="0px" y="0px" width="695px" height="776px" viewBox="0 -0.11 695 776" enable-background="new 0 -0.11 695 776" xml:space="preserve">
<defs>
</defs>
<rect fill="#969696" width="695" height="775"/>
<path fill="#FFFFFF" d="M441.1,538.028c-18.646,65.547-79.346,113.582-151.35,113.582c-86.847,0-157.25-69.881-157.25-156.083  c0-53.876,27.501-101.377,69.33-129.426l-2.294-76.7C118.63,323.526,61.861,403.416,61.861,496.527  c0,124.148,100.923,224.791,225.417,224.791c79.625,0,149.607-41.17,189.71-103.328L441.1,538.028z"/>
<path fill="#FFFFFF" d="M616,563c-5.284-8.807-17.11-16.455-28.247-11.898C577.3,555.378,564.653,564,553.784,564  c-6.874,0-7.457-0.996-9.784-7c-0.787-2.029-1.775-4.002-2.658-5.991c-5.374-12.114-10.749-24.229-16.124-36.343  c-13.266-29.901-26.532-59.803-39.798-89.705c-6.659-15.008-15.604-39.591-35.061-41.087C412.601,380.969,374.188,383,336.339,383  c-11.761,0-27.149,3.152-36.819-4.584c-13.256-10.605-10.919-30.545-11.574-45.532c27.72-0.248,55.439-0.495,83.159-0.742  c8.109-0.073,17.334,0.748,25.306-1.245c8.719-2.179,24.589-7.458,24.589-19.396c0-10.665-4.896-23.467-16.223-27.242  c-8.313-2.771-15.834-2.158-24.677-1.866c-30.47,1.007-60.94,2.015-91.41,3.021c-5.937,0.196-3.406-13.458-3.614-18.198  c-0.766-17.546-1.533-35.092-2.299-52.638c-0.274-6.28-0.549-12.56-0.823-18.839c-0.358-8.212,4.168-5.211,12.118-7.15  c24.171-5.896,45.18-22.869,54.975-45.879c21.054-49.455-17.034-102.655-68.718-106.478c-52.671-3.896-99.569,44.608-84.503,97.623  c3.654,12.858,10.81,24.589,20.371,33.909c2.823,2.752,2.445,2.409,2.577,5.925c0.342,9.129,0.684,18.259,1.026,27.388  c1.256,33.546,2.513,67.092,3.769,100.638c1.197,31.964,2.395,63.929,3.592,95.893c0.268,7.152,0.536,14.305,0.803,21.458  c0.356,9.502,8.401,16.299,14.591,22.489c5.617,5.617,14.759,4.465,21.995,4.375c12.779-0.161,25.558-0.321,38.337-0.482  c33.508-0.421,67.015-0.843,100.523-1.264c5.581-0.07,15.659-2.114,20.214,2.441c4.871,4.871,6.629,10.939,9.355,17.275  c12.965,30.134,25.93,60.269,38.895,90.403c8.742,20.322,17.485,40.644,26.229,60.965c2,4.648,4.075,8.795,6.601,13.214  c0.757,1.325,9.135,3.994,10.548,3.415c2.623-1.072,5.246-2.146,7.869-3.219c23.919-9.785,47.839-19.57,71.758-29.355  c5.824-2.383,12.193-4.559,16.215-9.729C618.919,579.533,619.055,575.218,616,563"/>
</svg>